<svg xmlns="http://www.w3.org/2000/svg" viewBox="0 0 64 64" width="64" height="64">
  <circle cx="32" cy="32" r="30" fill="#0a0f1e"/>
  <circle cx="32" cy="32" r="28" fill="none" stroke="#4f8ef7" stroke-width="1.5" opacity="0.4"/>
  <!-- S -->
  <path d="M18,20 C18,14 23,10 29,10 C34,10 38,14 38,20 L38,26 C38,30 36,32 32,32 C28,32 26,30 26,26 L26,27 C26,31 28,34 32,34 C36,34 38,32 38,28 C38,22 34,18 28,18 C24,18 22,20 22,22 L22,23 C22,26 24,28 28,28 C31,28 33,27 34,25 L36,25 C34,28 32,29 30,29 C26,29 24,27 24,24 Z" fill="#f1f5f9"/>
  <!-- A -->
  <path d="M40,16 L44,28 L54,28 L48,40 L44,40 L38,28 L40,28 Z M40,32 L42,38 L46,38 L44,32 Z" fill="#f1f5f9"/>
  <!-- C -->
  <path d="M56,20 C62,20 66,24 66,30 C66,36 62,40 56,40 L54,40 C56,38 58,36 58,32 C58,28 56,26 54,26 L52,26 C52,28 50,30 48,32 L46,32 C46,30 48,26 52,24 L56,22 Z" fill="none" stroke="#f1f5f9" stroke-width="2" stroke-linecap="round" stroke-linejoin="round"/>
</svg>