<svg xmlns="http://www.w3.org/2000/svg" viewBox="0 0 240 240" fill="none" stroke="#000" stroke-width="4" stroke-linecap="round" stroke-linejoin="round">
<path d="M62 202h116v-14H62z"/>
<path d="M74 188l6-26h80l6 26"/>
<path d="M86 162l4-56h60l4 56"/>
<path d="M76 106h88V92H76z"/>
<path d="M80 92V42h20v16h14V42h12v16h14V42h20v50"/>
<path d="M100 92v-8m40 8v-8" stroke-width="3"/>
<g fill="#000" stroke="none"><rect x="16" y="214" width="26" height="13"/><rect x="42" y="227" width="26" height="13"/><rect x="68" y="214" width="26" height="13"/><rect x="94" y="227" width="26" height="13"/><rect x="120" y="214" width="26" height="13"/><rect x="146" y="227" width="26" height="13"/><rect x="172" y="214" width="26" height="13"/><rect x="198" y="227" width="26" height="13"/><rect x="224" y="214" width="26" height="13"/></g>
</svg>
