<svg xmlns="http://www.w3.org/2000/svg" viewBox="0 0 240 240" fill="none" stroke="#000" stroke-width="4" stroke-linecap="round" stroke-linejoin="round">
<ellipse cx="120" cy="66" rx="16" ry="38" transform="rotate(0 120 120)"/><ellipse cx="120" cy="66" rx="16" ry="38" transform="rotate(45 120 120)"/><ellipse cx="120" cy="66" rx="16" ry="38" transform="rotate(90 120 120)"/><ellipse cx="120" cy="66" rx="16" ry="38" transform="rotate(135 120 120)"/><ellipse cx="120" cy="66" rx="16" ry="38" transform="rotate(180 120 120)"/><ellipse cx="120" cy="66" rx="16" ry="38" transform="rotate(225 120 120)"/><ellipse cx="120" cy="66" rx="16" ry="38" transform="rotate(270 120 120)"/><ellipse cx="120" cy="66" rx="16" ry="38" transform="rotate(315 120 120)"/>
<ellipse cx="120" cy="92" rx="8" ry="18" transform="rotate(22.5 120 120)"/><ellipse cx="120" cy="92" rx="8" ry="18" transform="rotate(67.5 120 120)"/><ellipse cx="120" cy="92" rx="8" ry="18" transform="rotate(112.5 120 120)"/><ellipse cx="120" cy="92" rx="8" ry="18" transform="rotate(157.5 120 120)"/><ellipse cx="120" cy="92" rx="8" ry="18" transform="rotate(202.5 120 120)"/><ellipse cx="120" cy="92" rx="8" ry="18" transform="rotate(247.5 120 120)"/><ellipse cx="120" cy="92" rx="8" ry="18" transform="rotate(292.5 120 120)"/><ellipse cx="120" cy="92" rx="8" ry="18" transform="rotate(337.5 120 120)"/>
<circle cx="120" cy="120" r="13"/><circle cx="120" cy="120" r="5" fill="#000" stroke="none"/>
<circle cx="120" cy="120" r="96" stroke-width="2.5" stroke-dasharray="2 7"/>
<circle cx="228" cy="120" r="4.2" fill="#000" stroke="none"/><circle cx="219.8" cy="161.3" r="4.2" fill="#000" stroke="none"/><circle cx="196.4" cy="196.4" r="4.2" fill="#000" stroke="none"/><circle cx="161.3" cy="219.8" r="4.2" fill="#000" stroke="none"/><circle cx="120" cy="228" r="4.2" fill="#000" stroke="none"/><circle cx="78.7" cy="219.8" r="4.2" fill="#000" stroke="none"/><circle cx="43.6" cy="196.4" r="4.2" fill="#000" stroke="none"/><circle cx="20.2" cy="161.3" r="4.2" fill="#000" stroke="none"/><circle cx="12" cy="120" r="4.2" fill="#000" stroke="none"/><circle cx="20.2" cy="78.7" r="4.2" fill="#000" stroke="none"/><circle cx="43.6" cy="43.6" r="4.2" fill="#000" stroke="none"/><circle cx="78.7" cy="20.2" r="4.2" fill="#000" stroke="none"/><circle cx="120" cy="12" r="4.2" fill="#000" stroke="none"/><circle cx="161.3" cy="20.2" r="4.2" fill="#000" stroke="none"/><circle cx="196.4" cy="43.6" r="4.2" fill="#000" stroke="none"/><circle cx="219.8" cy="78.7" r="4.2" fill="#000" stroke="none"/>
</svg>
