<svg xmlns="http://www.w3.org/2000/svg" viewBox="0 0 240 240" fill="none" stroke="#000" stroke-width="4" stroke-linecap="round" stroke-linejoin="round">
<rect x="28" y="92" width="184" height="118" rx="12"/>
<path d="M172 92L200 46"/><circle cx="203" cy="41" r="5" fill="#000" stroke="none"/>
<path d="M214 30a15 15 0 0 1 3 22M224 22a26 26 0 0 1 5 38" stroke-width="3.5"/>
<circle cx="84" cy="150" r="32"/><circle cx="84" cy="150" r="21"/><circle cx="84" cy="150" r="8" fill="#000"/>
<circle cx="168" cy="128" r="15"/><path d="M168 128l8-9"/>
<path d="M130 178h68"/><path d="M132 172v8"/><path d="M144 172v8"/><path d="M156 172v8"/><path d="M168 172v8"/><path d="M180 172v8"/><path d="M192 172v8"/>
<path d="M44 92v-8m152 8v-8" stroke-width="3"/>
</svg>
